<svg class="ldi-5nptr3" width="100%" height="100%" xmlns="http://www.w3.org/2000/svg" xmlns:xlink="http://www.w3.org/1999/xlink" viewBox="0 0 100 100" preserveAspectRatio="xMidYMid"><!--?xml version="1.0" encoding="utf-8"?--><!--Generator: Adobe Illustrator 21.0.0, SVG Export Plug-In . SVG Version: 6.00 Build 0)--><svg version="1.1" id="圖層_1" xmlns="http://www.w3.org/2000/svg" xmlns:xlink="http://www.w3.org/1999/xlink" x="0px" y="0px" viewBox="0 0 100 100" style="transform-origin: 50px 50px 0px;" xml:space="preserve"><g style="transform-origin: 50px 50px 0px; transform: scale(0.6);"><g style="transform-origin: 50px 50px 0px;"><style type="text/css" class="ld ld-breath" style="transform-origin: 50px 50px 0px; animation-duration: 1s; animation-delay: -1s;">.st0{fill:none;stroke:#F8B26A;stroke-width:4;stroke-miterlimit:10;} .st1{fill:#E15B64;} .st2{fill:#ABBD81;} .st3{fill:#849B87;} .st4{fill:#F5E6C8;} .st5{fill:#C8DC96;} .st6{fill:#CCCCCC;} .st7{fill:#333333;} .st8{fill:#E0E0E0;} .st9{fill:#FFFFFF;stroke:#E15B64;stroke-width:9.375;stroke-miterlimit:10;} .st10{fill:#E0E0E0;stroke:#333333;stroke-width:3;stroke-linecap:round;stroke-miterlimit:10;} .st11{fill:#666666;stroke:#333333;stroke-width:3;stroke-linecap:round;stroke-miterlimit:10;} .st12{fill:none;stroke:#E15B64;stroke-width:8;stroke-miterlimit:10;} .st13{fill:#E0E0E0;stroke:#333333;stroke-width:2.5723;stroke-linecap:round;stroke-miterlimit:10;} .st14{fill:#666666;stroke:#333333;stroke-width:2.5723;stroke-linecap:round;stroke-miterlimit:10;} .st15{fill:#E0E0E0;stroke:#333333;stroke-width:2.935;stroke-linecap:round;stroke-miterlimit:10;} .st16{fill:#666666;stroke:#333333;stroke-width:2.935;stroke-linecap:round;stroke-miterlimit:10;} .st17{fill:#ABBD81;stroke:#333333;stroke-width:3.5653;stroke-linecap:round;stroke-miterlimit:10;} .st18{fill:none;stroke:#333333;stroke-width:4.208;stroke-linecap:round;stroke-miterlimit:10;} .st19{fill:#F47E60;stroke:#333333;stroke-width:3.607;stroke-miterlimit:10;} .st20{fill:#F47E60;stroke:#333333;stroke-width:4.0972;stroke-miterlimit:10;} .st21{fill:#F47E60;stroke:#333333;stroke-width:4.2085;stroke-miterlimit:10;} .st22{fill:#F8B26A;} .st23{fill:#FFFFFF;} .st24{fill:#FFFFFF;stroke:#FFFFFF;stroke-miterlimit:10;} .st25{fill:none;stroke:#FFFFFF;stroke-width:2;stroke-linecap:round;stroke-miterlimit:10;} .st26{fill:#E0E0E0;stroke:#332518;stroke-width:4;stroke-linecap:round;stroke-miterlimit:10;} .st27{fill:#66503A;} .st28{fill:#666666;} .st29{fill:#FFFFFF;stroke:#E0E0E0;stroke-width:5;stroke-linecap:round;stroke-miterlimit:10;} .st30{fill:none;stroke:#666666;stroke-width:4;stroke-miterlimit:10;stroke-dasharray:7.8519,7.8519;} .st31{fill:#F8B26A;stroke:#F47E60;stroke-width:4;stroke-miterlimit:10;} .st32{fill:none;stroke:#C33737;stroke-width:8;stroke-miterlimit:10;} .st33{fill:#A0C8D7;} .st34{fill:#F47E60;} .st35{fill:#C33737;stroke:#E15B64;stroke-width:5;stroke-miterlimit:10;} .st36{fill:#4A3827;} .st37{opacity:0.5;} .st38{fill:none;stroke:#000000;stroke-width:2.2018;stroke-miterlimit:10;} .st39{fill:none;stroke:#000000;stroke-width:2.2018;stroke-miterlimit:10;stroke-dasharray:4.7318,4.7318;} .st40{fill:none;stroke:#333333;stroke-width:7.4066;stroke-miterlimit:10;} .st41{fill:none;stroke:#333333;stroke-width:7.6862;stroke-miterlimit:10;} .st42{fill:#F8B26A;stroke:#333333;stroke-width:4;stroke-miterlimit:10;} .st43{fill:#F5E6C8;stroke:#333333;stroke-width:4;stroke-miterlimit:10;} .st44{fill:none;stroke:#333333;stroke-width:4;stroke-miterlimit:10;} .st45{opacity:0.2;} .st46{fill:none;stroke:#332518;stroke-width:4;stroke-linecap:round;stroke-miterlimit:10;} .st47{fill-rule:evenodd;clip-rule:evenodd;fill:#B5B5B5;} .st48{fill:#FFFFFF;stroke:#FFFFFF;stroke-width:0.6282;stroke-miterlimit:10;} .st49{fill:none;stroke:#FFFFFF;stroke-width:1.2563;stroke-linecap:round;stroke-miterlimit:10;} .st50{opacity:0.6;fill:#F5E169;} .st51{fill:none;} .st52{fill:#F8B26A;stroke:#333333;stroke-width:3.6728;stroke-linejoin:round;stroke-miterlimit:10;} .st53{fill:none;stroke:#E0E0E0;stroke-width:1.5;stroke-miterlimit:10;} .st54{fill:#66503A;stroke:#4A3827;stroke-width:3;stroke-miterlimit:10;} .st55{fill:none;stroke:#4A3827;stroke-width:3;stroke-miterlimit:10;} .st56{fill:none;stroke:#333333;stroke-width:3.1166;stroke-linecap:round;stroke-miterlimit:10;} .st57{fill:#999999;stroke:#333333;stroke-width:3;stroke-miterlimit:10;} .st58{fill:#E0E0E0;stroke:#333333;stroke-width:3.5653;stroke-linecap:round;stroke-miterlimit:10;} .st59{fill:#666666;stroke:#333333;stroke-width:3.5653;stroke-linecap:round;stroke-miterlimit:10;} .st60{fill:none;stroke:#333333;stroke-width:3;stroke-miterlimit:10;} .st61{fill:#E0E0E0;stroke:#333333;stroke-width:3.1759;stroke-linecap:round;stroke-miterlimit:10;} .st62{fill:#666666;stroke:#333333;stroke-width:3.1759;stroke-linecap:round;stroke-miterlimit:10;} .st63{fill:#E0E0E0;stroke:#333333;stroke-width:3.1886;stroke-linecap:round;stroke-miterlimit:10;} .st64{fill:#666666;stroke:#333333;stroke-width:3.1886;stroke-linecap:round;stroke-miterlimit:10;} .st65{fill:#E0E0E0;stroke:#333333;stroke-width:3.1503;stroke-linecap:round;stroke-miterlimit:10;} .st66{fill:#666666;stroke:#333333;stroke-width:3.1503;stroke-linecap:round;stroke-miterlimit:10;} .st67{fill:#FFFFFF;stroke:#333333;stroke-width:4;stroke-miterlimit:10;} .st68{fill:none;stroke:#849B87;stroke-width:4;stroke-linecap:round;stroke-miterlimit:10;} .st69{fill:#FFFFFF;stroke:#333333;stroke-width:3.9519;stroke-miterlimit:10;} .st70{fill:none;stroke:#E15B64;stroke-width:3.9519;stroke-linecap:round;stroke-miterlimit:10;} .st71{fill:#FFFFFF;stroke:#333333;stroke-width:3.9841;stroke-miterlimit:10;} .st72{fill:#C33737;} .st73{fill:none;stroke:#E15B64;stroke-width:9.8945;stroke-miterlimit:10;} .st74{fill:#ABBD81;stroke:#333333;stroke-width:2.9913;stroke-linecap:round;stroke-miterlimit:10;} .st75{fill:#66503A;stroke:#333333;stroke-width:2.9913;stroke-linecap:round;stroke-miterlimit:10;} .st76{fill:#E0E0E0;stroke:#333333;stroke-width:2.8537;stroke-linecap:round;stroke-miterlimit:10;} .st77{fill:#666666;stroke:#333333;stroke-width:2.8537;stroke-linecap:round;stroke-miterlimit:10;} .st78{fill:#E0E0E0;stroke:#333333;stroke-width:3.1909;stroke-linecap:round;stroke-miterlimit:10;} .st79{fill:#666666;stroke:#333333;stroke-width:3.1909;stroke-linecap:round;stroke-miterlimit:10;} .st80{fill:#666666;stroke:#333333;stroke-width:4.9453;stroke-linecap:round;stroke-miterlimit:10;} .st81{fill:#F5E6C8;stroke:#333333;stroke-width:4.0165;stroke-linecap:round;stroke-linejoin:round;stroke-miterlimit:10;} .st82{fill:#E0E0E0;stroke:#333333;stroke-width:3;stroke-miterlimit:10;} .st83{fill:#666666;stroke:#333333;stroke-width:3;stroke-miterlimit:10;} .st84{fill:#F5E6C8;stroke:#333333;stroke-miterlimit:10;} .st85{fill:#F8B26A;stroke:#333333;stroke-miterlimit:10;} .st86{fill:#77A4BD;} .st87{fill:none;stroke:#333333;stroke-width:2.3991;stroke-miterlimit:10;} .st88{fill:#666666;stroke:#333333;stroke-width:5.1406;stroke-linecap:round;stroke-miterlimit:10;} .st89{fill:#66503A;stroke:#333333;stroke-width:3;stroke-linecap:round;stroke-miterlimit:10;}</style><g class="ld ld-breath" style="transform-origin: 50px 50px 0px; animation-duration: 1s; animation-delay: -0.923077s;"><path class="st22" d="M49.999,16.648c-18.39,0-33.351,14.961-33.351,33.351c0,18.39,14.961,33.352,33.351,33.352 c18.39,0,33.352-14.962,33.352-33.352C83.352,31.609,68.39,16.648,49.999,16.648z" fill="#222d32" style="fill: rgb(34, 45, 50);"></path></g><g class="ld ld-breath" style="transform-origin: 50px 50px 0px; animation-duration: 1s; animation-delay: -0.846154s;"><path class="st4" d="M62.076,50.788c-0.789-0.425-1.123-0.814-2.595-1.168c1.372-0.439,1.431-0.994,2.267-1.667 c0.837-0.672,1.478-1.447,1.922-2.325c0.445-0.877,0.667-1.805,0.667-2.781c0-1.344-0.421-2.58-1.261-3.705 c-0.841-1.125-2.042-1.989-3.604-2.59c-0.493-0.19-1.052-0.346-1.662-0.476V30.37h-4.907v5.279h-3.681V30.37h-4.908v5.279h-8.224 v4.098h1.24c0.826,0,1.386,0.071,1.679,0.212c0.293,0.142,0.5,0.333,0.62,0.573c0.12,0.241,0.18,0.8,0.18,1.677l0.039,16.519 c0,0.864-0.061,1.419-0.182,1.667c-0.122,0.248-0.33,0.439-0.626,0.573c-0.296,0.135-0.862,0.202-1.696,0.202h-1.252v4.098h8.223 v4.361h4.908v-4.361h3.512c0.058,0,0.111-0.001,0.168-0.001v4.362h4.907v-4.771c0.768-0.162,1.451-0.372,2.143-0.631 c1.857-0.693,3.293-1.702,4.309-3.026c1.015-1.323,1.523-2.771,1.523-4.342c0-1.316-0.334-2.509-1.001-3.578 C64.117,52.215,63.214,51.383,62.076,50.788z M47.588,40.427h1.635h1.814c0.851,0,1.426,0.021,1.866,0.063 c0.602,0.057,0.952,0.153,1.403,0.287c0.781,0.234,1.379,0.626,1.792,1.178c0.413,0.552,0.62,1.218,0.62,1.996 c0,0.75-0.218,1.412-0.654,1.985c-0.436,0.573-1.086,1.002-1.95,1.285c-0.44,0.144-0.764,0.251-1.212,0.322 c-0.432,0.068-0.981,0.103-1.866,0.103h-1.814h-1.635V40.427z M56.611,58.729c-0.621,0.736-1.375,1.221-2.261,1.454 c-0.61,0.161-0.894,0.265-1.447,0.315c-0.251,0.023-0.551,0.035-0.972,0.035h-2.318c-0.144,0-0.268-0.003-0.391-0.005 c-0.537-0.012-0.887-0.048-1.029-0.111c-0.174-0.078-0.299-0.216-0.375-0.414c-0.061-0.155-0.098-0.686-0.113-1.592v-6.412h1.517 h2.595c0.435,0,0.786,0.01,1.085,0.028c0.939,0.057,1.337,0.203,2.004,0.439c0.878,0.312,1.537,0.772,1.977,1.38 c0.439,0.609,0.659,1.352,0.659,2.229C57.543,57.109,57.232,57.993,56.611,58.729z" fill="#3c8dbc" style="fill: rgb(60, 141, 188);"></path></g><g class="ld ld-breath" style="transform-origin: 50px 50px 0px; animation-duration: 1s; animation-delay: -0.769231s;"><path class="st4" d="M49.999,10C27.944,10,10,27.943,10,49.999C10,72.055,27.944,90,49.999,90C72.055,90,90,72.055,90,49.999 C90,27.943,72.055,10,49.999,10z M49.999,83.352c-18.39,0-33.351-14.962-33.351-33.352c0-18.39,14.961-33.351,33.351-33.351 c18.39,0,33.352,14.961,33.352,33.351C83.352,68.39,68.39,83.352,49.999,83.352z" fill="#3c8dbc" style="fill: rgb(60, 141, 188);"></path></g><metadata xmlns:d="https://loading.io/stock/" class="ld ld-breath" style="transform-origin: 50px 50px 0px; animation-duration: 1s; animation-delay: -0.692308s;">
<d:name class="ld ld-breath" style="transform-origin: 50px 50px 0px; animation-duration: 1s; animation-delay: -0.615385s;">bitcoin</d:name>
<d:tags class="ld ld-breath" style="transform-origin: 50px 50px 0px; animation-duration: 1s; animation-delay: -0.538462s;">bitcoin,digital currency,money,encryption,blockchain,ethereum</d:tags>
<d:license class="ld ld-breath" style="transform-origin: 50px 50px 0px; animation-duration: 1s; animation-delay: -0.461538s;">cc-by</d:license>
<d:slug class="ld ld-breath" style="transform-origin: 50px 50px 0px; animation-duration: 1s; animation-delay: -0.384615s;">5nptr3</d:slug>
</metadata></g></g><style type="text/css" class="ld ld-breath" style="transform-origin: 50px 50px 0px; animation-duration: 1s; animation-delay: -0.307692s;">path,ellipse,circle,rect,polygon,polyline,line { stroke-width: 0; }@keyframes ld-breath {
  0% {
    -webkit-transform: scale(0.86);
    transform: scale(0.86);
  }
  50% {
    -webkit-transform: scale(1.06);
    transform: scale(1.06);
  }
  100% {
    -webkit-transform: scale(0.86);
    transform: scale(0.86);
  }
}
@-webkit-keyframes ld-breath {
  0% {
    -webkit-transform: scale(0.86);
    transform: scale(0.86);
  }
  50% {
    -webkit-transform: scale(1.06);
    transform: scale(1.06);
  }
  100% {
    -webkit-transform: scale(0.86);
    transform: scale(0.86);
  }
}
.ld.ld-breath {
  -webkit-animation: ld-breath 1s infinite;
  animation: ld-breath 1s infinite;
}
</style></svg></svg>